<?xml version="1.0" encoding="UTF-8"?>
<svg version="1.1" xmlns="http://www.w3.org/2000/svg" width="791" height="248">
<path d="M0 0 C3.4469264 0.00769305 6.893831 0.00052447 10.34075856 -0.0041585 C16.12607619 -0.00958912 21.91127826 -0.00249659 27.69657826 0.01186323 C34.34497402 0.02817685 40.99309348 0.02289979 47.64148253 0.00638402 C53.39144461 -0.0073176 59.14132448 -0.00910831 64.89129764 -0.00129998 C68.30713409 0.00333031 71.72284156 0.00413212 75.13866925 -0.00590944 C97.92928373 -0.05189702 120.29017506 0.22382632 137.63139272 17.40297651 C150.29242844 32.12899171 154.7853004 46.30627968 154.77665639 65.43373823 C154.780015 66.51124342 154.78337361 67.58874861 154.786834 68.69890547 C154.79629484 72.24350353 154.79828457 75.78805412 154.79936147 79.33266401 C154.8025771 81.8083417 154.8059414 84.28401919 154.80944753 86.75969648 C154.81542638 91.94271488 154.81728867 97.12571663 154.81669545 102.30873823 C154.81659383 108.93493635 154.83025218 115.56102733 154.84746766 122.18720007 C154.85861013 127.29858082 154.86061398 132.40993584 154.86008573 137.5213275 C154.86126221 139.96364032 154.8656653 142.40595388 154.87341809 144.84825468 C154.88326459 148.27005385 154.88032162 151.6916225 154.87431264 155.11342573 C154.87993215 156.11218733 154.88555165 157.11094893 154.89134145 158.13997602 C154.81666028 174.95767375 149.14148532 189.32511719 137.53764272 201.62172651 C122.40141582 215.88049098 105.88986634 219.01372869 85.92434239 218.79713583 C82.83636851 218.76555766 79.7494526 218.76217782 76.66133046 218.7660594 C67.89263664 218.7725242 59.12444229 218.73214962 50.35600209 218.66738081 C44.9644517 218.6294905 39.57371499 218.62588117 34.18207097 218.64240789 C32.14328242 218.64164897 30.10445104 218.62776828 28.0658524 218.59993124 C15.93386653 218.43584343 7.50684881 218.7040439 -2.36860728 226.40297651 C-4.05403979 227.56672594 -5.74239356 228.7262684 -7.43501353 229.87953901 C-8.24083873 230.45607222 -9.04666392 231.03260542 -9.87690806 231.62660933 C-14.28882294 234.77192508 -18.80210919 237.76675042 -23.30610728 240.77797651 C-24.70312877 241.71963667 -24.70312877 241.71963667 -26.12837291 242.68032026 C-27.02104869 243.2771562 -27.91372447 243.87399214 -28.83345103 244.48891401 C-29.63387828 245.02564741 -30.43430552 245.56238081 -31.25898814 246.11537886 C-35.29356667 248.57786782 -38.71628144 248.8842516 -43.36860728 248.40297651 C-46.74860504 245.79920537 -48.22644431 244.39915338 -48.83760142 240.11659956 C-48.77693492 238.89497114 -48.71626842 237.67334272 -48.65376353 236.41469526 C-48.62636208 235.05470825 -48.60103702 233.6946781 -48.57759166 232.33461714 C-48.51363357 230.21272793 -48.43141711 228.09591821 -48.31074595 225.97646284 C-48.0684407 221.28296091 -48.06841953 216.97032741 -49.36860728 212.40297651 C-52.93803084 208.76623693 -56.86694995 206.70043042 -61.36860728 204.40297651 C-72.22631623 195.92361118 -79.02447169 181.77751967 -81.36860728 168.40297651 C-81.45666498 166.77146777 -81.4990229 165.13703053 -81.50232005 163.50315046 C-81.50871753 162.06307631 -81.50871753 162.06307631 -81.51524425 160.59390974 C-81.51479106 159.55226164 -81.51433787 158.51061354 -81.51387095 157.43740034 C-81.51722957 156.33107252 -81.52058818 155.2247447 -81.52404857 154.0848918 C-81.53354881 150.4265857 -81.53550139 146.76832543 -81.53657603 143.11000776 C-81.53978984 140.56278162 -81.54315401 138.01555566 -81.54666209 135.46832991 C-81.55265146 130.12614645 -81.55454511 124.78398004 -81.55391002 119.44179487 C-81.55331037 113.28716938 -81.5638417 107.13263185 -81.57965368 100.9780286 C-81.594365 95.03801237 -81.59789641 89.09802269 -81.59730029 83.15798712 C-81.59847743 80.64031506 -81.6028842 78.1226423 -81.61063266 75.6049819 C-81.62047709 72.07508984 -81.61753656 68.54542133 -81.6115272 65.01552534 C-81.61714671 63.98399839 -81.62276622 62.95247145 -81.62855601 61.88968611 C-81.55453451 44.69856997 -75.72724959 30.75292923 -64.19282603 17.99672651 C-59.49306894 13.38385568 -54.42624868 10.04310567 -48.61860728 7.02797651 C-48.01210338 6.70611372 -47.40559947 6.38425093 -46.78071666 6.05263472 C-32.11686738 -1.08485423 -15.87061091 -0.0466094 0 0 Z M-56.36860728 31.40297651 C-64.17634658 40.79562015 -66.97799013 51.15324069 -66.90205455 63.18569136 C-66.91067012 64.3075836 -66.91928569 65.42947584 -66.92816234 66.58536482 C-66.95070252 70.2617885 -66.94410442 73.93744241 -66.93501353 77.61391401 C-66.94025471 80.19022041 -66.94653299 82.76652488 -66.9537971 85.34282637 C-66.96417964 90.73081751 -66.96000476 96.11851941 -66.9450233 101.50649214 C-66.92811643 107.70230587 -66.94393178 113.89741425 -66.97624618 120.09315097 C-67.00633377 126.09305744 -67.00809143 132.09260935 -66.99874759 138.0926013 C-66.99793169 140.62733708 -67.00472533 143.16208793 -67.01951861 145.69678068 C-67.11240304 164.49207702 -66.18414286 178.23623606 -52.52876353 192.29750776 C-48.79599513 195.80127196 -45.40418056 197.81740908 -40.67720103 199.77407026 C-37.1656398 201.65687351 -35.67243426 202.50226586 -34.383744 206.32265425 C-34.05942376 209.8529135 -34.04870544 213.23574757 -34.18110728 216.77797651 C-34.18304088 217.99098433 -34.18497447 219.20399214 -34.18696666 220.45375776 C-34.19872685 223.44084756 -34.26079933 226.41806383 -34.36860728 229.40297651 C-30.86524342 228.04935481 -28.03111401 226.61982353 -24.99360728 224.40297651 C-20.62817728 221.27921074 -16.21049771 218.25367614 -11.74360728 215.27797651 C-11.13468638 214.87063276 -10.52576549 214.46328901 -9.89839244 214.04360151 C-8.71637677 213.2566488 -7.5295617 212.47684109 -6.33730769 211.70548773 C-5.06848896 210.86602499 -3.81853537 209.99695703 -2.59448695 209.09346151 C2.7326001 205.35130581 6.83331277 204.69151354 13.25346303 204.79116011 C14.18145207 204.78549528 15.10944112 204.77983046 16.06555104 204.77399397 C19.11395907 204.76056042 22.16116271 204.7813955 25.20951772 204.80141401 C27.34410846 204.79590817 29.47869388 204.78777846 31.61326528 204.77715254 C37.22455358 204.75430188 42.83545188 204.75846947 48.44676137 204.77095747 C57.41217548 204.78927927 66.3773592 204.77911762 75.34271932 204.74509764 C78.45794366 204.73903863 81.57266542 204.75219957 84.68785024 204.76708174 C101.10154076 204.7762456 113.62163401 203.07810073 126.44389272 191.96547651 C133.60152772 183.58081837 139.71047874 174.93650588 139.78529286 163.52970076 C139.79389333 162.550119 139.80249379 161.57053724 139.81135488 160.56127119 C139.81561482 159.49268873 139.81987477 158.42410627 139.82426381 157.32314253 C139.8324413 156.1925189 139.84061879 155.06189528 139.84904408 153.89701033 C139.87388043 150.15030648 139.89041331 146.4036406 139.90483022 142.65688276 C139.91281573 140.7339606 139.91281573 140.7339606 139.92096257 138.77219152 C139.94219166 133.37884739 139.96131896 127.98551552 139.97258496 122.59214067 C139.98877839 114.89299433 140.02184526 107.19435627 140.07898581 99.49540144 C140.12259271 93.40961868 140.1383542 87.32403275 140.14471745 81.23810339 C140.15140947 78.66147391 140.16657758 76.08485121 140.19060826 73.5083251 C140.35094457 55.2709662 140.03084841 41.16588941 126.63139272 27.40297651 C115.6236643 16.90018977 103.11390961 15.25610192 88.48246694 15.2418437 C87.26216283 15.2368788 86.04185872 15.23191389 84.7845757 15.22679853 C81.44743884 15.21472421 78.11036437 15.20724041 74.77321315 15.20278788 C72.68289829 15.19984704 70.5925888 15.1957403 68.50227666 15.1912837 C61.9466068 15.17762182 55.39094934 15.1679496 48.83526623 15.16408181 C41.29699979 15.15960853 33.75891534 15.14208919 26.2207042 15.11308122 C20.3750051 15.09137629 14.52935687 15.08137281 8.68361795 15.08004069 C5.20122191 15.07899866 1.71899723 15.07322085 -1.76335597 15.05522108 C-5.65673343 15.03548724 -9.54988834 15.04006427 -13.44331431 15.0465312 C-15.14577563 15.03270903 -15.14577563 15.03270903 -16.88263011 15.01860762 C-33.10342412 15.10253012 -45.13202804 19.73277089 -56.36860728 31.40297651 Z " fill="#FFFFFF" transform="translate(81.36860728263855,-0.40297651290893555)"/>
<path d="M0 0 C0.89847656 -0.03738281 1.79695313 -0.07476562 2.72265625 -0.11328125 C7.00489074 -0.17020903 9.35406488 -0.18736769 12.8828125 2.38671875 C13.62273437 3.37285156 14.36265625 4.35898437 15.125 5.375 C15.58116699 5.97183594 16.03733398 6.56867187 16.50732422 7.18359375 C18.08675298 9.28329884 19.60876542 11.41675835 21.125 13.5625 C22.27720307 15.17588173 23.42955098 16.78916002 24.58203125 18.40234375 C25.16807129 19.22589355 25.75411133 20.04944336 26.35791016 20.89794922 C29.15660976 24.821078 31.98604907 28.72184594 34.8125 32.625 C40.2786922 40.18792686 45.71158729 47.77422639 51.125 55.375 C54.77587962 50.90088282 58.20271868 46.27425201 61.625 41.625 C62.24012451 40.79025146 62.85524902 39.95550293 63.48901367 39.09545898 C67.53532417 33.58637575 71.51211166 28.03323917 75.4375 22.4375 C78.97391519 17.40241572 82.52593141 12.38263029 86.1875 7.4375 C86.87972656 6.50035156 87.57195312 5.56320313 88.28515625 4.59765625 C90.29975554 2.16388343 91.90958847 0.54146433 95.13037109 0.1003418 C97.5874276 0.07204201 100.04275673 0.05327611 102.5 0.0625 C103.77617187 0.03833008 103.77617187 0.03833008 105.078125 0.01367188 C109.93553417 0.00988885 113.15943717 0.25468662 117.125 3.375 C118.69512031 4.94512031 118.26393193 6.49997799 118.27890015 8.68232727 C118.28750061 9.6118924 118.29610107 10.54145752 118.30496216 11.49919128 C118.31135208 13.04127007 118.31135208 13.04127007 118.31787109 14.61450195 C118.33013733 16.22905273 118.33013733 16.22905273 118.34265137 17.8762207 C118.36756164 21.45523512 118.3840352 25.03420975 118.3984375 28.61328125 C118.40376118 29.83198599 118.40908485 31.05069073 118.41456985 32.30632591 C118.44132509 38.75588732 118.46069297 45.2054292 118.47509766 51.6550293 C118.48746386 57.0047987 118.51564677 62.35423657 118.55712891 67.70385742 C118.60631094 74.1500359 118.63120132 80.59586866 118.63832474 87.04222679 C118.64505899 89.50348872 118.66033689 91.9647423 118.68421555 94.4258976 C118.71569639 97.86678281 118.71592901 101.30632413 118.70849609 104.74731445 C118.72490143 105.76929428 118.74130676 106.79127411 118.75820923 107.84422302 C118.69716623 114.72767045 118.69716623 114.72767045 115.79946899 118.00602722 C112.40256567 119.74479039 109.9322983 119.90782154 106.125 119.875 C104.92875 119.8853125 103.7325 119.895625 102.5 119.90625 C98.42634401 119.26502637 96.9672548 118.3406721 94.125 115.375 C93.64400095 112.71245879 93.48789213 110.69117958 93.55737305 108.03613281 C93.55664291 107.30403091 93.55591278 106.57192902 93.55516052 105.81764221 C93.55863724 103.40370955 93.59749803 100.99171944 93.63671875 98.578125 C93.64604668 96.90233413 93.65316289 95.2265296 93.65815735 93.55072021 C93.67722898 89.14449275 93.72633049 84.73909215 93.78167725 80.33319092 C93.8328666 75.83552232 93.85567067 71.33771982 93.88085938 66.83984375 C93.93444964 58.01786629 94.01976394 49.19650196 94.125 40.375 C90.8730524 43.57990979 88.00921516 46.70569519 85.375 50.4375 C82.62613363 54.28489103 79.84813629 58.10042533 77 61.875 C74.15569114 65.64917907 71.33856214 69.44060222 68.546875 73.25390625 C67.92055176 74.10855469 67.29422852 74.96320313 66.64892578 75.84375 C65.40034042 77.54919753 64.15385796 79.25618698 62.90966797 80.96484375 C62.04559326 82.14433594 62.04559326 82.14433594 61.1640625 83.34765625 C60.65053223 84.05156494 60.13700195 84.75547363 59.60791016 85.48071289 C55.86460865 90.26245086 55.86460865 90.26245086 52.25 90.8125 C46.85946426 90.057825 44.14583294 86.56431611 40.99609375 82.390625 C39.84512276 80.806743 38.70091737 79.21792884 37.5625 77.625 C36.3195872 75.91234169 35.07608752 74.20010914 33.83203125 72.48828125 C33.21150879 71.63057129 32.59098633 70.77286133 31.95166016 69.88916016 C21.64574291 53.28973731 21.64574291 53.28973731 8.125 40.375 C8.1419693 41.22167236 8.1589386 42.06834473 8.17642212 42.94067383 C8.33491108 50.94359483 8.48306009 58.94662744 8.61977577 66.94995117 C8.69041228 71.06393317 8.76495903 75.17776478 8.84863281 79.29150391 C8.92932767 83.26601713 8.9995018 87.24059301 9.06257248 91.21542358 C9.08837395 92.72723157 9.11788168 94.23898128 9.15126419 95.75064087 C9.4786653 110.78473715 9.4786653 110.78473715 7.125 117.375 C4.02407532 120.0820428 0.16423256 119.70755888 -3.8125 119.75 C-5.01777344 119.77835937 -6.22304688 119.80671875 -7.46484375 119.8359375 C-11.70880829 119.26229739 -13.03445763 118.59193399 -15.875 115.375 C-16.62946493 111.85115079 -16.53699046 108.37069763 -16.49023438 104.77905273 C-16.49578339 103.70064117 -16.5013324 102.62222961 -16.50704956 101.51113892 C-16.51886953 97.94317325 -16.49454671 94.37647076 -16.46875 90.80859375 C-16.46703962 88.33285073 -16.46710384 85.8571059 -16.46887207 83.38136292 C-16.46721753 78.1919727 -16.44849256 73.0030138 -16.41699219 67.8137207 C-16.37729354 61.15289832 -16.37294844 54.49291252 -16.38045502 47.831954 C-16.38352033 42.71994325 -16.37142008 37.60806012 -16.35432434 32.4960804 C-16.34728013 30.03962059 -16.34417152 27.58314632 -16.34501648 25.12667656 C-16.34322435 21.6980345 -16.32189237 18.27007688 -16.29492188 14.84155273 C-16.29785248 13.82069077 -16.30078308 12.7998288 -16.30380249 11.74803162 C-16.2924527 10.81571716 -16.28110291 9.88340271 -16.26940918 8.9228363 C-16.26568047 8.11224479 -16.26195175 7.30165327 -16.25811005 6.46649837 C-15.77723436 3.84127167 -14.97034098 2.98572374 -12.875 1.375 C-8.59608211 -0.05130596 -4.48362537 0.0701563 0 0 Z " fill="#FFFFFF" transform="translate(66.875,50.625)"/>
<path d="M0 0 C9.69375 -0.0825 19.3875 -0.165 29.375 -0.25 C32.41638184 -0.28641602 35.45776367 -0.32283203 38.59130859 -0.36035156 C41.02701107 -0.3720442 43.46272141 -0.38223466 45.8984375 -0.390625 C47.76495972 -0.4213208 47.76495972 -0.4213208 49.66918945 -0.45263672 C60.25725818 -0.45684251 68.5271725 1.69692187 76.3125 9.08984375 C83.17393468 16.85660662 84.41342867 27.24785267 84.1875 37.2734375 C83.75080654 43.62368823 82.61566036 48.99098178 79.625 54.625 C78.1194198 57.69525401 78.1194198 57.69525401 78.5625 60.953125 C79.2941388 62.27653048 80.05384852 63.58467512 80.8359375 64.87890625 C85.87642402 74.06341693 84.14213546 86.97944988 84 97 C76.74 97 69.48 97 62 97 C61.6875 88.375 61.6875 88.375 61.61206055 85.69287109 C61.38667738 80.81998822 60.7956854 77.15834212 58 73 C54.42205513 70.51509292 50.59355746 70.65517548 46.390625 70.5859375 C45.66381531 70.56657135 44.93700562 70.5472052 44.18817139 70.5272522 C41.87556552 70.46765729 39.56290933 70.42115242 37.25 70.375 C35.67836418 70.33680164 34.10674887 70.29774883 32.53515625 70.2578125 C28.69021329 70.16036938 24.84547863 70.0806447 21 70 C21 78.91 21 87.82 21 97 C14.07 97 7.14 97 0 97 C0 64.99 0 32.98 0 0 Z M21 21 C21 29.91 21 38.82 21 48 C25.14492657 48.06921028 29.28781539 48.12883443 33.43286133 48.16479492 C34.84015734 48.17979877 36.24740724 48.20020863 37.65454102 48.22631836 C39.68777907 48.26307665 41.72039432 48.27980984 43.75390625 48.29296875 C44.97408447 48.3086792 46.1942627 48.32438965 47.45141602 48.34057617 C52.30887052 47.87438085 56.44181847 46.6620603 59.875 43 C62.156698 38.943648 62.31097885 35.58693805 62 31 C60.40791829 26.86058754 58.87579706 24.23151952 55 22 C51.36358481 20.78070056 47.85770287 20.88619617 44.046875 20.90234375 C43.38665344 20.9037587 42.72643188 20.90517365 42.04620361 20.90663147 C39.94742206 20.91220755 37.84874905 20.92475553 35.75 20.9375 C34.32291821 20.9425181 32.89583475 20.94708046 31.46875 20.95117188 C27.97909168 20.96131623 24.48966668 20.98089599 21 21 Z " fill="#FFFFFF" transform="translate(367,76)"/>
<path d="M0 0 C1.10400146 0.00757324 2.20800293 0.01514648 3.34545898 0.02294922 C14.5840951 0.25083246 24.3981213 2.15540735 32.625 10.4375 C42.54900284 22.41864237 42.78217465 35.65189205 42.72265625 50.5625 C42.7207878 51.91870064 42.71936592 53.27490196 42.71836853 54.63110352 C42.71457696 58.17545483 42.70477595 61.71976421 42.69366455 65.26409912 C42.68337762 68.89090406 42.67885541 72.51771588 42.67382812 76.14453125 C42.66315018 83.24220614 42.64558117 90.3398459 42.625 97.4375 C35.365 97.4375 28.105 97.4375 20.625 97.4375 C20.625 90.8375 20.625 84.2375 20.625 77.4375 C7.095 77.4375 -6.435 77.4375 -20.375 77.4375 C-20.375 84.0375 -20.375 90.6375 -20.375 97.4375 C-27.305 97.4375 -34.235 97.4375 -41.375 97.4375 C-41.46582205 88.77866569 -41.5390138 80.12015422 -41.58224869 71.46094894 C-41.6030124 67.43895339 -41.63112099 63.41730414 -41.67675781 59.39550781 C-41.72062106 55.50510567 -41.74422115 51.61503396 -41.75450897 47.72440338 C-41.76182855 46.24941058 -41.77611924 44.77443328 -41.79792023 43.29958344 C-41.97313726 30.94035622 -40.54727477 20.04037781 -32.28515625 10.33984375 C-23.42298371 1.51391732 -12.04258143 -0.11524001 0 0 Z M-15.25 26.5625 C-21.95734207 35.63713928 -20.375 43.59977518 -20.375 55.4375 C-6.845 55.4375 6.685 55.4375 20.625 55.4375 C21.58440962 39.71302028 21.58440962 39.71302028 15.5 26.625 C6.18627921 19.53847331 -5.87566864 19.63364639 -15.25 26.5625 Z " fill="#FFFFFF" transform="translate(521.375,75.5625)"/>
<path d="M0 0 C1.10400146 0.00757324 2.20800293 0.01514648 3.34545898 0.02294922 C14.5840951 0.25083246 24.3981213 2.15540735 32.625 10.4375 C42.06382615 21.83289375 42.80393521 34.45282264 42.8125 48.6875 C42.82474609 49.74324219 42.83699219 50.79898438 42.84960938 51.88671875 C42.87339607 64.84253784 41.42521742 77.3385286 32.8046875 87.60546875 C21.80637371 98.04718772 8.04591311 97.88454076 -6.1875 97.7109375 C-17.05132372 97.38320566 -25.5670015 94.2775642 -33.375 86.4375 C-41.79162918 76.2911375 -41.88341866 64.22033851 -41.82104492 51.6796875 C-41.81253988 49.07471472 -41.84135943 46.47194454 -41.87304688 43.8671875 C-41.9268644 31.29959599 -40.76139389 20.29177457 -32.28515625 10.33984375 C-23.42298371 1.51391732 -12.04258143 -0.11524001 0 0 Z M-15.25 26.5625 C-20.24740538 33.32369551 -20.85725888 40.75007193 -20.75 48.9375 C-20.76160156 49.82308594 -20.77320313 50.70867187 -20.78515625 51.62109375 C-20.75313659 58.88955544 -19.63499647 65.37985771 -15.25 71.3125 C-9.61893641 75.47459048 -3.36445975 77.18637069 3.625 76.4375 C9.54683145 75.11584558 13.86169533 73.41834441 17.625 68.4375 C20.70010183 61.83200214 21.08439183 56.16706678 21 48.9375 C21.01160156 47.94363281 21.02320313 46.94976562 21.03515625 45.92578125 C21.0057337 38.5014907 20.08889253 32.69853423 15.5 26.625 C6.18627921 19.53847331 -5.87566864 19.63364639 -15.25 26.5625 Z " fill="#FFFFFF" transform="translate(748.375,75.5625)"/>
<path d="M0 0 C1.10400146 0.00757324 2.20800293 0.01514648 3.34545898 0.02294922 C14.5840951 0.25083246 24.3981213 2.15540735 32.625 10.4375 C42.54900284 22.41864237 42.78217465 35.65189205 42.72265625 50.5625 C42.7207878 51.91870064 42.71936592 53.27490196 42.71836853 54.63110352 C42.71457696 58.17545483 42.70477595 61.71976421 42.69366455 65.26409912 C42.68337762 68.89090406 42.67885541 72.51771588 42.67382812 76.14453125 C42.66315018 83.24220614 42.64558117 90.3398459 42.625 97.4375 C35.365 97.4375 28.105 97.4375 20.625 97.4375 C20.61041748 95.66181641 20.59583496 93.88613281 20.58081055 92.05664062 C20.52899653 86.16523774 20.46366731 80.27406638 20.38928509 74.38291168 C20.34471034 70.81389154 20.30542676 67.24498214 20.27856445 63.67578125 C20.25240149 60.22610138 20.2119099 56.77685072 20.16181374 53.32743835 C20.13720684 51.38233186 20.12713393 49.43705885 20.11735535 47.49182129 C19.9906429 39.80591045 19.53640441 33.58065243 15 27.125 C9.56791241 23.26535882 3.23203975 21.72960288 -3.375 22.4375 C-6.43753656 23.28534989 -9.40008367 24.32478905 -12.375 25.4375 C-13.365 25.7675 -14.355 26.0975 -15.375 26.4375 C-16.54013613 28.63682935 -16.54013613 28.63682935 -17.375 31.4375 C-17.7157959 32.37150635 -18.0565918 33.3055127 -18.40771484 34.26782227 C-20.03576061 40.04197672 -19.73425669 46.07560961 -19.7890625 52.02734375 C-19.80842865 53.32700577 -19.8277948 54.62666779 -19.8477478 55.9657135 C-19.89881345 59.39984179 -19.9385748 62.83400901 -19.97589111 66.26831055 C-20.01609231 69.78118315 -20.06711063 73.29389738 -20.1171875 76.80664062 C-20.21364345 83.68348402 -20.29714269 90.56042112 -20.375 97.4375 C-27.305 97.4375 -34.235 97.4375 -41.375 97.4375 C-41.46582205 88.77866569 -41.5390138 80.12015422 -41.58224869 71.46094894 C-41.6030124 67.43895339 -41.63112099 63.41730414 -41.67675781 59.39550781 C-41.72062106 55.50510567 -41.74422115 51.61503396 -41.75450897 47.72440338 C-41.76182855 46.24941058 -41.77611924 44.77443328 -41.79792023 43.29958344 C-41.97313726 30.94035622 -40.54727477 20.04037781 -32.28515625 10.33984375 C-23.42298371 1.51391732 -12.04258143 -0.11524001 0 0 Z " fill="#FFFFFF" transform="translate(635.375,75.5625)"/>
<path d="M0 0 C6.93 0 13.86 0 21 0 C21.01458252 1.74015381 21.02916504 3.48030762 21.04418945 5.27319336 C21.09604619 11.05283272 21.16138633 16.83223724 21.23571491 22.61162472 C21.28025108 26.1122344 21.31954269 29.61273219 21.34643555 33.11352539 C21.37766317 37.14758877 21.43244401 41.18104536 21.48828125 45.21484375 C21.49467117 46.45894516 21.5010611 47.70304657 21.50764465 48.98484802 C21.62356711 55.89858611 22.35218476 61.60607713 25 68 C25.33 68.99 25.66 69.98 26 71 C28.19932935 72.16513613 28.19932935 72.16513613 31 73 C32.670625 73.556875 32.670625 73.556875 34.375 74.125 C41.49473075 75.8435557 47.41864803 75.07459032 54 72 C58.40692625 68.62448202 60.0753643 65.35589403 61 60 C61.32747995 55.39873027 61.37232451 50.80305404 61.4140625 46.19140625 C61.43279826 44.85618424 61.45237342 43.52097377 61.4727478 42.18577576 C61.52382119 38.69246257 61.56357847 35.19911109 61.60089111 31.70562744 C61.64108738 28.1324333 61.69210798 24.55939499 61.7421875 20.98632812 C61.83865265 13.99099337 61.92214841 6.99556644 62 0 C69.26 0 76.52 0 84 0 C84.04545046 7.74615622 84.08202979 15.4922376 84.10362434 23.23849106 C84.11399631 26.83661665 84.12803271 30.43464512 84.15087891 34.03271484 C84.17284536 37.51460962 84.18461793 40.99641186 84.18975449 44.47837067 C84.19516818 46.43228715 84.21074155 48.38616717 84.22659302 50.34002686 C84.22824418 63.67896753 83.08522386 76.56158961 74.1796875 87.16796875 C63.18137371 97.60968772 49.42091311 97.44704076 35.1875 97.2734375 C24.32367628 96.94570566 15.8079985 93.8400642 8 86 C-0.200956 76.1136345 -0.4279376 64.4127157 -0.29296875 52.1484375 C-0.28736165 50.6381574 -0.28309683 49.12787178 -0.28010559 47.61758423 C-0.26874435 43.67527752 -0.23935436 39.73331141 -0.20599365 35.7911377 C-0.17510274 31.75533656 -0.16155994 27.71947947 -0.14648438 23.68359375 C-0.11447448 15.78889009 -0.06177995 7.89452687 0 0 Z " fill="#FFFFFF" transform="translate(254,76)"/>
</svg>
